<svg width="36" height="36" viewBox="0 0 36 36" fill="none" xmlns="http://www.w3.org/2000/svg">
<path fill-rule="evenodd" clip-rule="evenodd" d="M35.28 18.4089C35.28 17.1325 35.1655 15.9052 34.9527 14.7271H18V21.6898H27.6873C27.27 23.9398 26.0018 25.8461 24.0955 27.1225V31.6389H29.9127C33.3164 28.5052 35.28 23.8907 35.28 18.4089Z" fill="#4285F4"/>
<path fill-rule="evenodd" clip-rule="evenodd" d="M18 35.9999C22.86 35.9999 26.9345 34.3881 29.9127 31.639L24.0955 27.1226C22.4836 28.2026 20.4218 28.8408 18 28.8408C13.3118 28.8408 9.34364 25.6745 7.92819 21.4199H1.91455V26.0836C4.87637 31.9663 10.9636 35.9999 18 35.9999Z" fill="#34A853"/>
<path fill-rule="evenodd" clip-rule="evenodd" d="M7.92818 21.4197C7.56818 20.3397 7.36364 19.186 7.36364 17.9997C7.36364 16.8133 7.56818 15.6597 7.92818 14.5797V9.91602H1.91455C0.695454 12.346 0 15.0951 0 17.9997C0 20.9042 0.695454 23.6533 1.91455 26.0833L7.92818 21.4197Z" fill="#FBBC05"/>
<path fill-rule="evenodd" clip-rule="evenodd" d="M18 7.15909C20.6427 7.15909 23.0155 8.06727 24.8809 9.85091L30.0436 4.68818C26.9264 1.78364 22.8518 0 18 0C10.9636 0 4.87637 4.03364 1.91455 9.91636L7.92819 14.58C9.34364 10.3255 13.3118 7.15909 18 7.15909Z" fill="#EA4335"/>
</svg>
