<svg width="40" height="40" viewBox="0 0 40 40" fill="none" xmlns="http://www.w3.org/2000/svg">
<g clip-path="url(#clip0_105_91)">
<path d="M0 20C0 8.95431 8.95431 0 20 0C31.0457 0 40 8.95431 40 20C40 31.0457 31.0457 40 20 40C8.95431 40 0 31.0457 0 20Z" fill="#F2E6D6"/>
<g clip-path="url(#clip1_105_91)">
<rect width="17.8095" height="6.28571" transform="translate(11.6353 33.9363)" fill="#E9A879"/>
<path d="M11.6357 37.7777L14.7786 36.7301L18.9691 38.1269L22.4611 36.7301L25.9532 38.1269L29.4453 36.7301" stroke="#F4EFEB" stroke-width="0.698413"/>
</g>
<path d="M5.73132 26.7583C9.92179 28.7139 11.435 32.6948 11.6678 34.4409H29.4445C29.4445 30.5295 32.2707 28.1552 33.6676 27.457C44.9701 18.7742 34.8572 13.1393 33.3184 13.1393C32.6199 13.1393 14.4615 12.7901 7.47736 13.1393C0.493228 13.4885 0.143806 24.1508 5.73132 26.7583Z" fill="#E1747A"/>
<path d="M21.0955 21.714C21.0955 20.51 20.6908 19.3553 19.9704 18.504C19.25 17.6526 18.273 17.1743 17.2542 17.1743C16.2355 17.1743 15.2584 17.6526 14.538 18.504C13.8177 19.3553 13.413 20.51 13.413 21.714L17.2542 21.714H21.0955Z" fill="#F3F1EC"/>
<path d="M27.3837 21.714C27.3837 20.51 26.979 19.3553 26.2586 18.504C25.5383 17.6526 24.5612 17.1743 23.5424 17.1743C22.5237 17.1743 21.5466 17.6526 20.8263 18.504C20.1059 19.3553 19.7012 20.51 19.7012 21.714L23.5424 21.714H27.3837Z" fill="#F3F1EC"/>
<mask id="mask0_105_91" style="mask-type:alpha" maskUnits="userSpaceOnUse" x="19" y="17" width="9" height="5">
<path d="M27.3837 21.714C27.3837 20.51 26.979 19.3553 26.2586 18.504C25.5383 17.6526 24.5612 17.1743 23.5424 17.1743C22.5237 17.1743 21.5466 17.6526 20.8263 18.504C20.1059 19.3553 19.7012 20.51 19.7012 21.714L23.5424 21.714H27.3837Z" fill="#F3F1EC"/>
</mask>
<g mask="url(#mask0_105_91)">
<circle cx="23.54" cy="21.0156" r="1.74603" fill="#4E4241"/>
</g>
<mask id="mask1_105_91" style="mask-type:alpha" maskUnits="userSpaceOnUse" x="13" y="17" width="9" height="5">
<path d="M21.0955 21.714C21.0955 20.51 20.6908 19.3553 19.9704 18.504C19.25 17.6526 18.273 17.1743 17.2542 17.1743C16.2355 17.1743 15.2584 17.6526 14.538 18.504C13.8177 19.3553 13.413 20.51 13.413 21.714L17.2542 21.714H21.0955Z" fill="#F3F1EC"/>
</mask>
<g mask="url(#mask1_105_91)">
<circle cx="17.2577" cy="21.0156" r="1.74603" fill="#4E4241"/>
</g>
<path d="M26.6826 23.4602C27.4541 23.4602 28.0923 24.0906 27.9528 24.8493C27.8553 25.3797 27.702 25.8996 27.4946 26.4002C27.1086 27.3323 26.5427 28.1792 25.8293 28.8926C25.1159 29.606 24.269 30.1718 23.3369 30.5579C22.4048 30.944 21.4058 31.1427 20.3969 31.1427C19.388 31.1427 18.389 30.944 17.4569 30.5579C16.5248 30.1718 15.6779 29.606 14.9645 28.8926C14.2511 28.1792 13.6852 27.3323 13.2992 26.4002C13.0918 25.8996 12.9385 25.3797 12.841 24.8493C12.7015 24.0906 13.3397 23.4602 14.1112 23.4602L20.3969 23.4602H26.6826Z" fill="#4E4241"/>
<path d="M21.0983 23.4604C21.0983 23.7355 21.0622 24.008 20.992 24.2622C20.9218 24.5164 20.8189 24.7473 20.6892 24.9419C20.5595 25.1365 20.4055 25.2908 20.2361 25.3961C20.0666 25.5014 19.8849 25.5556 19.7015 25.5556C19.5181 25.5556 19.3364 25.5014 19.167 25.3961C18.9975 25.2908 18.8435 25.1365 18.7138 24.9419C18.5841 24.7473 18.4812 24.5164 18.411 24.2622C18.3408 24.008 18.3047 23.7355 18.3047 23.4604L19.7015 23.4604H21.0983Z" fill="#F3F1EC"/>
<path d="M23.194 23.4604C23.194 23.7355 23.1579 24.008 23.0877 24.2622C23.0175 24.5164 22.9146 24.7473 22.7849 24.9419C22.6552 25.1365 22.5012 25.2908 22.3318 25.3961C22.1623 25.5014 21.9806 25.5556 21.7972 25.5556C21.6138 25.5556 21.4321 25.5014 21.2627 25.3961C21.0932 25.2908 20.9392 25.1365 20.8095 24.9419C20.6798 24.7473 20.5769 24.5164 20.5067 24.2622C20.4365 24.008 20.4004 23.7355 20.4004 23.4604L21.7972 23.4604H23.194Z" fill="#F3F1EC"/>
<mask id="mask2_105_91" style="mask-type:alpha" maskUnits="userSpaceOnUse" x="12" y="23" width="16" height="9">
<path d="M26.6826 23.4602C27.4541 23.4602 28.0923 24.0906 27.9528 24.8493C27.8553 25.3797 27.702 25.8996 27.4946 26.4002C27.1086 27.3323 26.5427 28.1792 25.8293 28.8926C25.1159 29.606 24.269 30.1718 23.3369 30.5579C22.4048 30.944 21.4058 31.1427 20.3969 31.1427C19.388 31.1427 18.389 30.944 17.4569 30.5579C16.5248 30.1718 15.6779 29.606 14.9645 28.8926C14.2511 28.1792 13.6852 27.3323 13.2992 26.4002C13.0918 25.8996 12.9385 25.3797 12.841 24.8493C12.7015 24.0906 13.3397 23.4602 14.1112 23.4602L20.3969 23.4602H26.6826Z" fill="#4E4241"/>
</mask>
<g mask="url(#mask2_105_91)">
<circle cx="16.9083" cy="31.1426" r="4.88889" fill="#9CCFCC"/>
</g>
<path d="M12.8186 6.98941C12.6066 6.52679 12.9446 6 13.4535 6H18.1668C18.458 6 18.7185 6.18059 18.8208 6.45318L21.4398 13.4373C21.611 13.8939 21.2735 14.381 20.7859 14.381H16.6546C16.3815 14.381 16.1334 14.2218 16.0196 13.9735L12.8186 6.98941Z" fill="#E1747A"/>
<path d="M27.9749 6.98941C28.1869 6.52679 27.8489 6 27.34 6H22.6266C22.3355 6 22.0749 6.18059 21.9727 6.45318L19.3536 13.4373C19.1824 13.8939 19.5199 14.381 20.0076 14.381H24.1389C24.412 14.381 24.66 14.2218 24.7738 13.9735L27.9749 6.98941Z" fill="#E1747A"/>
</g>
<defs>
<clipPath id="clip0_105_91">
<path d="M0 20C0 8.95431 8.95431 0 20 0C31.0457 0 40 8.95431 40 20C40 31.0457 31.0457 40 20 40C8.95431 40 0 31.0457 0 20Z" fill="white"/>
</clipPath>
<clipPath id="clip1_105_91">
<rect width="17.8095" height="6.28571" fill="white" transform="translate(11.6353 33.9363)"/>
</clipPath>
</defs>
</svg>
